<svg width="495" height="423" viewBox="0 0 495 423" fill="none" xmlns="http://www.w3.org/2000/svg">
<path d="M0 50C0 22.3858 22.3858 0 50 0H70V372C70 399.614 47.6142 422 20 422H0V50Z" fill="#06D6A0"/>
<path d="M219.394 0L235 13.0019C256.216 30.6775 259.086 62.2054 241.411 83.4214L138.396 207.069L122.79 194.068C101.574 176.392 98.704 144.864 116.38 123.648L219.394 0Z" fill="#FFD166"/>
<path d="M106.724 311.877C86.6146 292.952 85.654 261.308 104.579 241.199L118.499 226.406L235.7 336.701C255.81 355.626 256.77 387.269 237.846 407.379L223.925 422.171L106.724 311.877Z" fill="#EF476F"/>
<path d="M354 157C354 129.386 376.386 107 404 107H425V372C425 399.614 402.614 422 375 422H354V157Z" fill="#E76F51"/>
<path d="M284 50C284 22.3858 306.386 0 334 0H495V20C495 47.6142 472.614 70 445 70H284V50Z" fill="#5BC0EB"/>
</svg>
